{"title":"Ghosthouse Underground 8 Film Collection DVDRip Xvid LKRG","uid":6501847,"size":7311587467,"categoryP":"video","categoryS":"movies","magnet":"?xt=urn:btih:011de98502373ae15a471068898c44b348753de8&amp;dn=Ghosthouse+Underground+8+Film+Collection+DVDRip+Xvid+LKRG&amp;tr=udp%3A%2F%2Ftracker.openbittorrent.com%3A80&amp;tr=udp%3A%2F%2Fopen.demonii.com%3A1337&amp;tr=udp%3A%2F%2Ftracker.coppersurfer.tk%3A6969&amp;tr=udp%3A%2F%2Fexodus.desync.com%3A6969","seeders":0,"leechers":2,"uploader":".BONE.","files":22,"time":1309274693,"description":"Format;AVI\n \nFile Size:6.81gb\n \nVideo\n ID : 0\n Format : MPEG-4 Visual\n Format profile : Advanced Simple@L5\n Format settings, BVOP : Yes\n Format settings, QPel : No\n Format settings, GMC : No warppoints\n Format settings, Matrix : Custom\n Codec ID : XVID\n Codec ID/Hint : XviD\n Duration : 1h 25mns\n Bit rate : 1881 Kbps\n Width : 680 pixels\n Height : 384 pixels\n Display aspect ratio : 16:9\n Frame rate : 29.970 fps\n Color space : YUV\n Chroma subsampling : 4:2:0\n Bit depth : 8 bits\n Scan type : Progressive\n Bits/(Pixel*Frame) : 0.113\n Stream size : 28.7 MiB (3%)\n Writing library : XviD 1.2.1 (UTC 2008-12-04)\n \nAudio\n ID : 1\n Format : AC-3\n Format/Info : Audio Coding 3\n Codec ID : 2000\n Duration : 1h 25mn\n Bit rate mode : Constant\n Bit rate : 192 Kbps\n Channel(s) : 2 channels\n Sampling rate : 48.0 KHz\n Stream size : 117 MiB (11%)\n Alignment : Aligned on interleaves\n \n\n\nDuration:7 hours+\n \nRelease Date:2011\n \nLanguage:English\n\n\n\nBrotherhood Of Blood\n \n\n\nDance Of The Dead\n \n\n\nDark Floors\n \n\n\nThe Last House In The Woods\n \n\n\nRoom 205\n \n\n\nNo Man's Land The Rise Of Reeker\n \n\n\nThe Substitute\n \n\n\nTrackman\n \n\n\n\n\n\n","torrent":{"xt":"urn:btih:011de98502373ae15a471068898c44b348753de8","amp;dn":"Ghosthouse+Underground+8+Film+Collection+DVDRip+Xvid+LKRG","amp;tr":["udp%3A%2F%2Ftracker.openbittorrent.com%3A80","udp%3A%2F%2Fopen.demonii.com%3A1337","udp%3A%2F%2Ftracker.coppersurfer.tk%3A6969","udp%3A%2F%2Fexodus.desync.com%3A6969"],"infoHash":"011de98502373ae15a471068898c44b348753de8","infoHashBuffer":{"type":"Buffer","data":[1,29,233,133,2,55,58,225,90,71,16,104,137,140,68,179,72,117,61,232]},"announce":[],"urlList":[]}}